<?xml version="1.0" encoding="UTF-8" standalone="no"?>
<!DOCTYPE svg PUBLIC "-//W3C//DTD SVG 1.1//EN" "http://www.w3.org/Graphics/SVG/1.1/DTD/svg11.dtd">
<svg width="100%" height="100%" viewBox="0 0 559 120" version="1.1" xmlns="http://www.w3.org/2000/svg" xmlns:xlink="http://www.w3.org/1999/xlink" xml:space="preserve" xmlns:serif="http://www.serif.com/" style="fill-rule:evenodd;clip-rule:evenodd;stroke-linecap:round;stroke-linejoin:round;stroke-miterlimit:1.5;">
    <g transform="matrix(1,0,0,1,-2967,-7485.2)">
        <g id="Amandus-Nominert-Transparent" serif:id="Amandus Nominert Transparent" transform="matrix(0.0469432,0,0,0.0315457,2856.54,7300.41)">
            <rect x="2353" y="5858" width="11908" height="3804" style="fill:none;"/>
            <clipPath id="_clip1">
                <rect x="2353" y="5858" width="11908" height="3804"/>
            </clipPath>
            <g clip-path="url(#_clip1)">
                <g id="Amandus-Fiksjon-Nominasjojn" serif:id="Amandus Fiksjon Nominasjojn" transform="matrix(0.894454,0,0,1,-1562.35,0)">
                    <g id="Amandus-Komet" serif:id="Amandus Komet" transform="matrix(0.628261,0,0,0.628261,2405.82,2901.43)">
                        <g transform="matrix(38.7172,0,0,51.5341,-86655.3,-382220)">
                            <path d="M2353.93,7540.07C2368.79,7540.07 2380.85,7552.13 2380.85,7566.98C2380.85,7581.83 2368.79,7593.89 2353.93,7593.89C2339.08,7593.89 2327.02,7581.83 2327.02,7566.98C2327.02,7552.13 2339.08,7540.07 2353.93,7540.07ZM2353.93,7543.91C2341.2,7543.91 2330.87,7554.25 2330.87,7566.98C2330.87,7579.71 2341.2,7590.05 2353.93,7590.05C2366.66,7590.05 2377,7579.71 2377,7566.98C2377,7554.25 2366.66,7543.91 2353.93,7543.91ZM2350.3,7567.72C2351.14,7567.72 2351.83,7568.41 2351.83,7569.26C2351.83,7570.11 2351.14,7570.8 2350.3,7570.8C2349.45,7570.8 2348.76,7570.11 2348.76,7569.26C2348.76,7568.41 2349.45,7567.72 2350.3,7567.72ZM2358.05,7574.54C2361.48,7574.54 2364.27,7577.32 2364.27,7580.75C2364.27,7584.19 2361.48,7586.97 2358.05,7586.97C2354.62,7586.97 2351.83,7584.19 2351.83,7580.75C2351.83,7577.32 2354.62,7574.54 2358.05,7574.54ZM2358.05,7578.38C2356.74,7578.38 2355.68,7579.44 2355.68,7580.75C2355.68,7582.06 2356.74,7583.13 2358.05,7583.13C2359.36,7583.13 2360.42,7582.06 2360.42,7580.75C2360.42,7579.44 2359.36,7578.38 2358.05,7578.38ZM2358.05,7546.99C2361.48,7546.99 2364.27,7549.77 2364.27,7553.2C2364.27,7556.64 2361.48,7559.42 2358.05,7559.42C2354.62,7559.42 2351.83,7556.64 2351.83,7553.2C2351.83,7549.77 2354.62,7546.99 2358.05,7546.99ZM2358.05,7550.83C2356.74,7550.83 2355.68,7551.9 2355.68,7553.2C2355.68,7554.52 2356.74,7555.58 2358.05,7555.58C2359.36,7555.58 2360.42,7554.52 2360.42,7553.2C2360.42,7551.9 2359.36,7550.83 2358.05,7550.83ZM2368.51,7560.76C2371.94,7560.76 2374.72,7563.55 2374.72,7566.98C2374.72,7570.41 2371.94,7573.2 2368.51,7573.2C2365.08,7573.2 2362.29,7570.41 2362.29,7566.98C2362.29,7563.55 2365.08,7560.76 2368.51,7560.76ZM2368.51,7564.61C2367.2,7564.61 2366.14,7565.67 2366.14,7566.98C2366.14,7568.29 2367.2,7569.35 2368.51,7569.35C2369.82,7569.35 2370.88,7568.29 2370.88,7566.98C2370.88,7565.67 2369.82,7564.61 2368.51,7564.61ZM2350.6,7562.98C2351.62,7562.98 2352.45,7563.81 2352.45,7564.83C2352.45,7565.85 2351.62,7566.67 2350.6,7566.67C2349.59,7566.67 2348.76,7565.85 2348.76,7564.83C2348.76,7563.81 2349.59,7562.98 2350.6,7562.98ZM2354.78,7569C2355.8,7569 2356.62,7569.83 2356.62,7570.85C2356.62,7571.86 2355.8,7572.69 2354.78,7572.69C2353.76,7572.69 2352.93,7571.86 2352.93,7570.85C2352.93,7569.83 2353.76,7569 2354.78,7569ZM2354.78,7561.27C2355.8,7561.27 2356.62,7562.1 2356.62,7563.11C2356.62,7564.13 2355.8,7564.96 2354.78,7564.96C2353.76,7564.96 2352.93,7564.13 2352.93,7563.11C2352.93,7562.1 2353.76,7561.27 2354.78,7561.27ZM2342.06,7569.13C2345.49,7569.13 2348.28,7571.92 2348.28,7575.35C2348.28,7578.78 2345.49,7581.57 2342.06,7581.57C2338.63,7581.57 2335.84,7578.78 2335.84,7575.35C2335.84,7571.92 2338.63,7569.13 2342.06,7569.13ZM2342.06,7572.98C2340.75,7572.98 2339.68,7574.04 2339.68,7575.35C2339.68,7576.66 2340.75,7577.72 2342.06,7577.72C2343.37,7577.72 2344.43,7576.66 2344.43,7575.35C2344.43,7574.04 2343.37,7572.98 2342.06,7572.98ZM2342.06,7552.52C2345.49,7552.52 2348.28,7555.31 2348.28,7558.74C2348.28,7562.17 2345.49,7564.96 2342.06,7564.96C2338.63,7564.96 2335.84,7562.17 2335.84,7558.74C2335.84,7555.31 2338.63,7552.52 2342.06,7552.52ZM2342.06,7556.37C2340.75,7556.37 2339.68,7557.43 2339.68,7558.74C2339.68,7560.05 2340.75,7561.11 2342.06,7561.11C2343.37,7561.11 2344.43,7560.05 2344.43,7558.74C2344.43,7557.43 2343.37,7556.37 2342.06,7556.37ZM2357.37,7565.13C2358.39,7565.13 2359.22,7565.96 2359.22,7566.98C2359.22,7568 2358.39,7568.82 2357.37,7568.82C2356.35,7568.82 2355.52,7568 2355.52,7566.98C2355.52,7565.96 2356.35,7565.13 2357.37,7565.13Z" style="fill:rgb(255,235,28);"/>
                        </g>
                        <g transform="matrix(23.816,0,0,31.7,-52138,-231423)">
                            <path d="M2515,7559.88C2516.72,7559.88 2518.12,7561.28 2518.12,7563C2518.12,7564.73 2516.72,7566.12 2515,7566.12L2478.73,7566.12L2486,7582.51L2399,7582.51C2397.28,7582.51 2395.88,7581.11 2395.88,7579.38C2395.88,7577.66 2397.28,7576.26 2399,7576.26L2476.27,7576.26L2469,7559.88" style="fill:rgb(255,235,28);"/>
                        </g>
                        <g transform="matrix(23.816,-3.88213e-15,-2.91662e-15,-31.7,-51472.9,246883)">
                            <path d="M2370.2,7582.51C2368.47,7582.51 2367.07,7581.11 2367.07,7579.38C2367.07,7577.66 2368.47,7576.26 2370.2,7576.26L2476.27,7576.26L2465.07,7559.51L2472.2,7559.61L2483.87,7578.15L2486,7582.51L2370.2,7582.51Z" style="fill:rgb(255,235,28);"/>
                        </g>
                        <g transform="matrix(18.8395,0,0,31.7,-39766.5,-231423)">
                            <path d="M2419,7544.5L2486,7544.5" style="fill:none;stroke:rgb(255,235,28);stroke-width:11.03px;"/>
                        </g>
                        <g transform="matrix(21.3278,0,0,31.7,-46238,-231978)">
                            <path d="M2419,7544.5L2486,7544.5" style="fill:none;stroke:rgb(255,235,28);stroke-width:10.48px;"/>
                        </g>
                        <g transform="matrix(10.6639,0,0,31.7,-20442.1,-230877)">
                            <path d="M2419,7544.5L2486,7544.5" style="fill:none;stroke:rgb(255,235,28);stroke-width:12.84px;"/>
                        </g>
                        <g transform="matrix(20.4285,0,0,31.7,-42073.5,-231423)">
                            <path d="M2419,7544.5L2486,7544.5" style="fill:none;stroke:rgb(255,235,28);stroke-width:10.68px;"/>
                        </g>
                        <g transform="matrix(23.816,0,0,31.7,-52138,-231423)">
                            <path d="M2452.12,7600.85L2377.45,7600.85L2377.45,7600.85C2346.3,7600.82 2321,7575.52 2320.97,7544.37C2320.93,7513.19 2346.22,7487.88 2377.4,7487.88L2470.88,7487.88C2472.6,7487.88 2474,7489.28 2474,7491C2474,7492.73 2472.6,7494.12 2470.88,7494.12L2377.4,7494.12C2349.67,7494.12 2327.18,7516.64 2327.22,7544.36C2327.25,7572.07 2349.75,7594.57 2377.45,7594.6L2452.12,7594.6L2469.27,7594.6L2470.88,7594.6C2472.6,7594.6 2474,7596 2474,7597.73C2474,7599.45 2472.6,7600.85 2470.88,7600.85L2452.12,7600.85Z" style="fill:rgb(255,235,28);"/>
                        </g>
                    </g>
                    <g id="Amandus-Komet1" serif:id="Amandus Komet" transform="matrix(-0.628261,1.0241e-16,-5.78043e-17,-0.628261,19662.9,12618.6)">
                        <g transform="matrix(38.7172,0,0,51.5341,-86655.3,-382220)">
                            <path d="M2353.93,7540.07C2368.79,7540.07 2380.85,7552.13 2380.85,7566.98C2380.85,7581.83 2368.79,7593.89 2353.93,7593.89C2339.08,7593.89 2327.02,7581.83 2327.02,7566.98C2327.02,7552.13 2339.08,7540.07 2353.93,7540.07ZM2353.93,7543.91C2341.2,7543.91 2330.87,7554.25 2330.87,7566.98C2330.87,7579.71 2341.2,7590.05 2353.93,7590.05C2366.66,7590.05 2377,7579.71 2377,7566.98C2377,7554.25 2366.66,7543.91 2353.93,7543.91ZM2357.37,7565.13C2358.39,7565.13 2359.22,7565.96 2359.22,7566.98C2359.22,7568 2358.39,7568.82 2357.37,7568.82C2356.35,7568.82 2355.52,7568 2355.52,7566.98C2355.52,7565.96 2356.35,7565.13 2357.37,7565.13ZM2354.78,7569C2355.8,7569 2356.62,7569.83 2356.62,7570.85C2356.62,7571.86 2355.8,7572.69 2354.78,7572.69C2353.76,7572.69 2352.93,7571.86 2352.93,7570.85C2352.93,7569.83 2353.76,7569 2354.78,7569ZM2350.6,7562.98C2351.62,7562.98 2352.45,7563.81 2352.45,7564.83C2352.45,7565.85 2351.62,7566.67 2350.6,7566.67C2349.59,7566.67 2348.76,7565.85 2348.76,7564.83C2348.76,7563.81 2349.59,7562.98 2350.6,7562.98ZM2358.05,7574.54C2361.48,7574.54 2364.27,7577.32 2364.27,7580.75C2364.27,7584.19 2361.48,7586.97 2358.05,7586.97C2354.62,7586.97 2351.83,7584.19 2351.83,7580.75C2351.83,7577.32 2354.62,7574.54 2358.05,7574.54ZM2358.05,7578.38C2356.74,7578.38 2355.68,7579.44 2355.68,7580.75C2355.68,7582.06 2356.74,7583.13 2358.05,7583.13C2359.36,7583.13 2360.42,7582.06 2360.42,7580.75C2360.42,7579.44 2359.36,7578.38 2358.05,7578.38ZM2368.51,7560.76C2371.94,7560.76 2374.72,7563.55 2374.72,7566.98C2374.72,7570.41 2371.94,7573.2 2368.51,7573.2C2365.08,7573.2 2362.29,7570.41 2362.29,7566.98C2362.29,7563.55 2365.08,7560.76 2368.51,7560.76ZM2368.51,7564.61C2367.2,7564.61 2366.14,7565.67 2366.14,7566.98C2366.14,7568.29 2367.2,7569.35 2368.51,7569.35C2369.82,7569.35 2370.88,7568.29 2370.88,7566.98C2370.88,7565.67 2369.82,7564.61 2368.51,7564.61ZM2358.05,7546.99C2361.48,7546.99 2364.27,7549.77 2364.27,7553.2C2364.27,7556.64 2361.48,7559.42 2358.05,7559.42C2354.62,7559.42 2351.83,7556.64 2351.83,7553.2C2351.83,7549.77 2354.62,7546.99 2358.05,7546.99ZM2358.05,7550.83C2356.74,7550.83 2355.68,7551.9 2355.68,7553.2C2355.68,7554.52 2356.74,7555.58 2358.05,7555.58C2359.36,7555.58 2360.42,7554.52 2360.42,7553.2C2360.42,7551.9 2359.36,7550.83 2358.05,7550.83ZM2342.06,7552.52C2345.49,7552.52 2348.28,7555.31 2348.28,7558.74C2348.28,7562.17 2345.49,7564.96 2342.06,7564.96C2338.63,7564.96 2335.84,7562.17 2335.84,7558.74C2335.84,7555.31 2338.63,7552.52 2342.06,7552.52ZM2342.06,7556.37C2340.75,7556.37 2339.68,7557.43 2339.68,7558.74C2339.68,7560.05 2340.75,7561.11 2342.06,7561.11C2343.37,7561.11 2344.43,7560.05 2344.43,7558.74C2344.43,7557.43 2343.37,7556.37 2342.06,7556.37ZM2354.78,7561.27C2355.8,7561.27 2356.62,7562.1 2356.62,7563.11C2356.62,7564.13 2355.8,7564.96 2354.78,7564.96C2353.76,7564.96 2352.93,7564.13 2352.93,7563.11C2352.93,7562.1 2353.76,7561.27 2354.78,7561.27ZM2342.06,7569.13C2345.49,7569.13 2348.28,7571.92 2348.28,7575.35C2348.28,7578.78 2345.49,7581.57 2342.06,7581.57C2338.63,7581.57 2335.84,7578.78 2335.84,7575.35C2335.84,7571.92 2338.63,7569.13 2342.06,7569.13ZM2342.06,7572.98C2340.75,7572.98 2339.68,7574.04 2339.68,7575.35C2339.68,7576.66 2340.75,7577.72 2342.06,7577.72C2343.37,7577.72 2344.43,7576.66 2344.43,7575.35C2344.43,7574.04 2343.37,7572.98 2342.06,7572.98ZM2350.3,7567.72C2351.14,7567.72 2351.83,7568.41 2351.83,7569.26C2351.83,7570.11 2351.14,7570.8 2350.3,7570.8C2349.45,7570.8 2348.76,7570.11 2348.76,7569.26C2348.76,7568.41 2349.45,7567.72 2350.3,7567.72Z" style="fill:rgb(255,235,28);"/>
                        </g>
                        <g transform="matrix(23.816,0,0,31.7,-52138,-231423)">
                            <path d="M2515,7559.88C2516.72,7559.88 2518.12,7561.28 2518.12,7563C2518.12,7564.73 2516.72,7566.12 2515,7566.12L2478.73,7566.12L2486,7582.51L2399,7582.51C2397.28,7582.51 2395.88,7581.11 2395.88,7579.38C2395.88,7577.66 2397.28,7576.26 2399,7576.26L2476.27,7576.26L2469,7559.88" style="fill:rgb(255,235,28);"/>
                        </g>
                        <g transform="matrix(23.816,-3.88213e-15,-2.91662e-15,-31.7,-51472.9,246883)">
                            <path d="M2370.2,7582.51C2368.47,7582.51 2367.07,7581.11 2367.07,7579.38C2367.07,7577.66 2368.47,7576.26 2370.2,7576.26L2476.27,7576.26L2465.07,7559.51L2472.2,7559.61L2483.87,7578.15L2486,7582.51L2370.2,7582.51Z" style="fill:rgb(255,235,28);"/>
                        </g>
                        <g transform="matrix(18.8395,0,0,31.7,-39766.5,-231423)">
                            <path d="M2419,7544.5L2486,7544.5" style="fill:none;stroke:rgb(255,235,28);stroke-width:11.03px;"/>
                        </g>
                        <g transform="matrix(21.3278,0,0,31.7,-46238,-231978)">
                            <path d="M2419,7544.5L2486,7544.5" style="fill:none;stroke:rgb(255,235,28);stroke-width:10.48px;"/>
                        </g>
                        <g transform="matrix(10.6639,0,0,31.7,-20442.1,-230877)">
                            <path d="M2419,7544.5L2486,7544.5" style="fill:none;stroke:rgb(255,235,28);stroke-width:12.84px;"/>
                        </g>
                        <g transform="matrix(20.4285,0,0,31.7,-42073.5,-231423)">
                            <path d="M2419,7544.5L2486,7544.5" style="fill:none;stroke:rgb(255,235,28);stroke-width:10.68px;"/>
                        </g>
                        <g transform="matrix(23.816,0,0,31.7,-52138,-231423)">
                            <path d="M2452.12,7600.85L2377.45,7600.85L2377.45,7600.85C2346.3,7600.82 2321,7575.52 2320.97,7544.37C2320.93,7513.19 2346.22,7487.88 2377.4,7487.88L2470.88,7487.88C2472.6,7487.88 2474,7489.28 2474,7491C2474,7492.73 2472.6,7494.12 2470.88,7494.12L2377.4,7494.12C2349.67,7494.12 2327.18,7516.64 2327.22,7544.36C2327.25,7572.07 2349.75,7594.57 2377.45,7594.6L2452.12,7594.6L2469.27,7594.6L2470.88,7594.6C2472.6,7594.6 2474,7596 2474,7597.73C2474,7599.45 2472.6,7600.85 2470.88,7600.85L2452.12,7600.85Z" style="fill:rgb(255,235,28);"/>
                        </g>
                    </g>
                    <g id="Text" transform="matrix(1,0,0,1,2727.35,0)">
                        <g transform="matrix(23.4951,0,0,31.2729,-52505.6,-228715)">
                            <g transform="matrix(38.9232,0,0,41.6667,2471,7545.2)">
                                <path d="M0.547,-0.131L0.595,-0L0.84,-0L0.557,-0.703L0.259,-0.703L-0.007,-0L0.222,-0L0.267,-0.131L0.547,-0.131ZM0.316,-0.294C0.354,-0.401 0.385,-0.501 0.4,-0.559L0.404,-0.559C0.421,-0.501 0.448,-0.421 0.494,-0.294L0.316,-0.294Z" style="fill:rgb(255,235,28);fill-rule:nonzero;"/>
                            </g>
                            <g transform="matrix(38.9232,0,0,41.6667,2503.05,7545.2)">
                                <path d="M0.743,-0L0.966,-0L0.966,-0.703L0.64,-0.703C0.593,-0.542 0.548,-0.378 0.521,-0.254L0.52,-0.254C0.5,-0.372 0.455,-0.545 0.41,-0.703L0.083,-0.703L0.083,-0L0.287,-0L0.287,-0.229C0.287,-0.35 0.279,-0.486 0.274,-0.568L0.276,-0.568C0.311,-0.426 0.356,-0.231 0.412,-0L0.599,-0C0.67,-0.249 0.715,-0.43 0.749,-0.566L0.751,-0.566C0.746,-0.484 0.743,-0.349 0.743,-0.237L0.743,-0Z" style="fill:rgb(255,235,28);fill-rule:nonzero;"/>
                            </g>
                            <g transform="matrix(38.9232,0,0,41.6667,2543.88,7545.2)">
                                <path d="M0.547,-0.131L0.595,-0L0.84,-0L0.557,-0.703L0.259,-0.703L-0.007,-0L0.222,-0L0.267,-0.131L0.547,-0.131ZM0.316,-0.294C0.354,-0.401 0.385,-0.501 0.4,-0.559L0.404,-0.559C0.421,-0.501 0.448,-0.421 0.494,-0.294L0.316,-0.294Z" style="fill:rgb(255,235,28);fill-rule:nonzero;"/>
                            </g>
                            <g transform="matrix(38.9232,0,0,41.6667,2576.3,7545.2)">
                                <path d="M0.289,-0L0.289,-0.171C0.289,-0.309 0.288,-0.403 0.282,-0.483L0.285,-0.483C0.327,-0.397 0.5,-0.098 0.555,-0L0.806,-0L0.806,-0.703L0.601,-0.703L0.601,-0.579C0.601,-0.463 0.6,-0.336 0.607,-0.269L0.603,-0.269C0.557,-0.36 0.505,-0.451 0.349,-0.703L0.083,-0.703L0.083,-0L0.289,-0Z" style="fill:rgb(255,235,28);fill-rule:nonzero;"/>
                            </g>
                            <g transform="matrix(38.9232,0,0,41.6667,2610.9,7545.2)">
                                <path d="M0.083,-0L0.437,-0C0.662,-0 0.821,-0.146 0.821,-0.363C0.821,-0.548 0.693,-0.703 0.439,-0.703L0.083,-0.703L0.083,-0ZM0.311,-0.546L0.41,-0.546C0.535,-0.545 0.58,-0.466 0.58,-0.358C0.58,-0.226 0.523,-0.158 0.41,-0.158L0.311,-0.158L0.311,-0.546Z" style="fill:rgb(255,235,28);fill-rule:nonzero;"/>
                            </g>
                            <g transform="matrix(38.9232,0,0,41.6667,2644.49,7545.2)">
                                <path d="M0.073,-0.703L0.073,-0.295C0.073,-0.085 0.193,0.016 0.425,0.016C0.667,0.016 0.781,-0.091 0.781,-0.295L0.781,-0.703L0.552,-0.703L0.552,-0.296C0.552,-0.188 0.51,-0.147 0.431,-0.147C0.356,-0.147 0.302,-0.184 0.302,-0.296L0.302,-0.703L0.073,-0.703Z" style="fill:rgb(255,235,28);fill-rule:nonzero;"/>
                            </g>
                            <g transform="matrix(38.9232,0,0,41.6667,2677.44,7545.2)">
                                <path d="M0.017,-0.212C0.038,-0.085 0.143,0.015 0.379,0.015C0.618,0.015 0.731,-0.082 0.731,-0.216C0.731,-0.322 0.679,-0.406 0.414,-0.453C0.304,-0.473 0.275,-0.488 0.275,-0.521C0.275,-0.554 0.304,-0.574 0.366,-0.574C0.454,-0.574 0.473,-0.538 0.481,-0.507L0.703,-0.507C0.694,-0.611 0.601,-0.719 0.367,-0.719C0.175,-0.719 0.044,-0.638 0.044,-0.499C0.044,-0.406 0.081,-0.317 0.341,-0.272C0.473,-0.249 0.495,-0.227 0.495,-0.19C0.495,-0.155 0.47,-0.13 0.389,-0.13C0.297,-0.13 0.261,-0.165 0.246,-0.212L0.017,-0.212Z" style="fill:rgb(255,235,28);fill-rule:nonzero;"/>
                            </g>
                        </g>
                        <g transform="matrix(26.1457,0,0,34.8009,-57804.6,-254816)">
                            <g transform="matrix(23.4357,0,0,25.0876,2474,7554)">
                                <path d="M0.099,-0L0.216,-0L0.216,-0.3L0.619,-0.3L0.619,-0.398L0.216,-0.398L0.216,-0.612L0.649,-0.612L0.649,-0.709L0.099,-0.709L0.099,-0Z" style="fill:rgb(255,235,28);fill-rule:nonzero;"/>
                            </g>
                            <g transform="matrix(23.4357,0,0,25.0876,2490.02,7554)">
                                <rect x="0.098" y="-0.709" width="0.118" height="0.709" style="fill:rgb(255,235,28);fill-rule:nonzero;"/>
                            </g>
                            <g transform="matrix(23.4357,0,0,25.0876,2497.51,7554)">
                                <path d="M0.098,-0L0.216,-0L0.216,-0.256L0.321,-0.341L0.632,-0L0.783,-0L0.408,-0.405L0.762,-0.709L0.613,-0.709C0.478,-0.592 0.323,-0.462 0.216,-0.369L0.216,-0.709L0.098,-0.709L0.098,-0Z" style="fill:rgb(255,235,28);fill-rule:nonzero;"/>
                            </g>
                            <g transform="matrix(23.4357,0,0,25.0876,2515.76,7554)">
                                <path d="M0.038,-0.208C0.06,-0.078 0.16,0.015 0.364,0.015C0.583,0.015 0.675,-0.083 0.675,-0.198C0.675,-0.297 0.633,-0.377 0.374,-0.422C0.22,-0.448 0.191,-0.481 0.191,-0.535C0.191,-0.6 0.251,-0.633 0.348,-0.633C0.49,-0.633 0.518,-0.573 0.532,-0.528L0.65,-0.528C0.642,-0.602 0.585,-0.724 0.351,-0.724C0.194,-0.724 0.071,-0.652 0.071,-0.523C0.071,-0.427 0.121,-0.357 0.342,-0.32C0.517,-0.29 0.554,-0.251 0.554,-0.186C0.554,-0.125 0.506,-0.076 0.373,-0.076C0.239,-0.076 0.181,-0.13 0.157,-0.208L0.038,-0.208Z" style="fill:rgb(255,235,28);fill-rule:nonzero;"/>
                            </g>
                            <g transform="matrix(23.4357,0,0,25.0876,2532.69,7554)">
                                <path d="M0.355,-0.709L0.237,-0.709L0.237,-0.24C0.237,-0.148 0.207,-0.084 0.113,-0.084C0.082,-0.084 0.05,-0.087 0.027,-0.091L0.027,0.006C0.053,0.011 0.085,0.014 0.124,0.014C0.285,0.014 0.355,-0.067 0.355,-0.246L0.355,-0.709Z" style="fill:rgb(255,235,28);fill-rule:nonzero;"/>
                            </g>
                            <g transform="matrix(23.4357,0,0,25.0876,2543.27,7554)">
                                <path d="M0.431,-0.724C0.2,-0.724 0.054,-0.553 0.054,-0.357C0.054,-0.149 0.196,0.015 0.427,0.015C0.669,0.015 0.804,-0.157 0.804,-0.357C0.804,-0.553 0.662,-0.724 0.431,-0.724ZM0.425,-0.628C0.595,-0.628 0.68,-0.497 0.68,-0.355C0.68,-0.21 0.598,-0.081 0.432,-0.081C0.265,-0.081 0.178,-0.211 0.178,-0.359C0.178,-0.502 0.267,-0.628 0.425,-0.628Z" style="fill:rgb(255,235,28);fill-rule:nonzero;"/>
                            </g>
                            <g transform="matrix(23.4357,0,0,25.0876,2563.37,7554)">
                                <path d="M0.207,-0L0.207,-0.274C0.207,-0.399 0.207,-0.5 0.202,-0.59L0.204,-0.59C0.252,-0.508 0.518,-0.133 0.614,-0L0.746,-0L0.746,-0.709L0.637,-0.709L0.637,-0.464C0.637,-0.349 0.636,-0.232 0.643,-0.144L0.641,-0.144C0.6,-0.219 0.407,-0.467 0.238,-0.709L0.098,-0.709L0.098,-0L0.207,-0Z" style="fill:rgb(255,235,28);fill-rule:nonzero;"/>
                            </g>
                        </g>
                        <g transform="matrix(19.7219,0,0,26.2506,-42069.4,-190341)">
                            <circle cx="2457.52" cy="7546.52" r="9.521" style="fill:rgb(255,235,28);"/>
                        </g>
                        <g transform="matrix(19.7219,0,0,26.2506,-38250.6,-190362)">
                            <circle cx="2457.52" cy="7546.52" r="9.521" style="fill:rgb(255,235,28);"/>
                        </g>
                        <g transform="matrix(22.4665,0,0,29.9038,-50043,-216438)">
                            <g transform="matrix(38.9232,0,0,41.6667,2471,7545.2)">
                                <path d="M0.289,-0L0.289,-0.171C0.289,-0.309 0.288,-0.403 0.282,-0.483L0.285,-0.483C0.327,-0.397 0.5,-0.098 0.555,-0L0.806,-0L0.806,-0.703L0.601,-0.703L0.601,-0.579C0.601,-0.463 0.6,-0.336 0.607,-0.269L0.603,-0.269C0.557,-0.36 0.505,-0.451 0.349,-0.703L0.083,-0.703L0.083,-0L0.289,-0Z" style="fill:rgb(255,235,28);fill-rule:nonzero;"/>
                            </g>
                            <g transform="matrix(38.9232,0,0,41.6667,2505.77,7545.2)">
                                <path d="M0.446,-0.719C0.178,-0.719 0.042,-0.546 0.042,-0.352C0.042,-0.146 0.182,0.016 0.436,0.016C0.712,0.016 0.844,-0.155 0.844,-0.353C0.844,-0.553 0.7,-0.719 0.446,-0.719ZM0.441,-0.564C0.56,-0.564 0.603,-0.474 0.603,-0.352C0.603,-0.246 0.566,-0.143 0.447,-0.143C0.332,-0.143 0.283,-0.233 0.283,-0.356C0.283,-0.471 0.328,-0.564 0.441,-0.564Z" style="fill:rgb(255,235,28);fill-rule:nonzero;"/>
                            </g>
                            <g transform="matrix(38.9232,0,0,41.6667,2540.26,7545.2)">
                                <path d="M0.743,-0L0.966,-0L0.966,-0.703L0.64,-0.703C0.593,-0.542 0.548,-0.378 0.521,-0.254L0.52,-0.254C0.5,-0.372 0.455,-0.545 0.41,-0.703L0.083,-0.703L0.083,-0L0.287,-0L0.287,-0.229C0.287,-0.35 0.279,-0.486 0.274,-0.568L0.276,-0.568C0.311,-0.426 0.356,-0.231 0.412,-0L0.599,-0C0.67,-0.249 0.715,-0.43 0.749,-0.566L0.751,-0.566C0.746,-0.484 0.743,-0.349 0.743,-0.237L0.743,-0Z" style="fill:rgb(255,235,28);fill-rule:nonzero;"/>
                            </g>
                            <g transform="matrix(38.9232,0,0,41.6667,2581.09,7545.2)">
                                <rect x="0.083" y="-0.703" width="0.228" height="0.703" style="fill:rgb(255,235,28);fill-rule:nonzero;"/>
                            </g>
                            <g transform="matrix(38.9232,0,0,41.6667,2596.42,7545.2)">
                                <path d="M0.289,-0L0.289,-0.171C0.289,-0.309 0.288,-0.403 0.282,-0.483L0.285,-0.483C0.327,-0.397 0.5,-0.098 0.555,-0L0.806,-0L0.806,-0.703L0.601,-0.703L0.601,-0.579C0.601,-0.463 0.6,-0.336 0.607,-0.269L0.603,-0.269C0.557,-0.36 0.505,-0.451 0.349,-0.703L0.083,-0.703L0.083,-0L0.289,-0Z" style="fill:rgb(255,235,28);fill-rule:nonzero;"/>
                            </g>
                            <g transform="matrix(38.9232,0,0,41.6667,2631.02,7545.2)">
                                <path d="M0.684,-0.443L0.308,-0.443L0.308,-0.541L0.704,-0.541L0.704,-0.703L0.083,-0.703L0.083,-0L0.702,-0L0.728,-0.162L0.308,-0.162L0.308,-0.28L0.684,-0.28L0.684,-0.443Z" style="fill:rgb(255,235,28);fill-rule:nonzero;"/>
                            </g>
                            <g transform="matrix(38.9232,0,0,41.6667,2660.41,7545.2)">
                                <path d="M0.414,-0.259C0.503,-0.259 0.524,-0.235 0.524,-0.169L0.524,-0.146C0.524,-0.073 0.527,-0.03 0.538,-0L0.766,-0C0.756,-0.034 0.756,-0.086 0.756,-0.126L0.756,-0.164C0.756,-0.283 0.691,-0.317 0.653,-0.333C0.722,-0.357 0.775,-0.411 0.775,-0.501C0.775,-0.618 0.683,-0.703 0.509,-0.703L0.083,-0.703L0.083,-0L0.308,-0L0.308,-0.259L0.414,-0.259ZM0.308,-0.552L0.448,-0.552C0.513,-0.552 0.545,-0.525 0.545,-0.478C0.545,-0.428 0.51,-0.405 0.448,-0.405L0.308,-0.405L0.308,-0.552Z" style="fill:rgb(255,235,28);fill-rule:nonzero;"/>
                            </g>
                            <g transform="matrix(38.9232,0,0,41.6667,2692.92,7545.2)">
                                <path d="M0.241,-0L0.469,-0L0.469,-0.541L0.7,-0.541L0.7,-0.703L0.008,-0.703L0.008,-0.541L0.241,-0.541L0.241,-0Z" style="fill:rgb(255,235,28);fill-rule:nonzero;"/>
                            </g>
                        </g>
                    </g>
                </g>
            </g>
        </g>
    </g>
</svg>
