<?xml version="1.0" encoding="UTF-8" standalone="no"?>
<!DOCTYPE svg PUBLIC "-//W3C//DTD SVG 1.1//EN" "http://www.w3.org/Graphics/SVG/1.1/DTD/svg11.dtd">
<svg width="100%" height="100%" viewBox="0 0 600 100" version="1.1" xmlns="http://www.w3.org/2000/svg" xmlns:xlink="http://www.w3.org/1999/xlink" xml:space="preserve" xmlns:serif="http://www.serif.com/" style="fill-rule:evenodd;clip-rule:evenodd;stroke-linecap:round;stroke-linejoin:round;stroke-miterlimit:1.5;">
    <g transform="matrix(1,0,0,1,-2967,-7493)">
        <g id="Amandus-Nominert-Transparent" serif:id="Amandus Nominert Transparent" transform="matrix(0.0503863,0,0,0.0262881,2848.44,7339)">
            <rect x="2353" y="5858" width="11908" height="3804" style="fill:none;"/>
            <clipPath id="_clip1">
                <rect x="2353" y="5858" width="11908" height="3804"/>
            </clipPath>
            <g clip-path="url(#_clip1)">
                <g id="Amandus-Fiksjon-Nominasjojn" serif:id="Amandus Fiksjon Nominasjojn" transform="matrix(0.894454,0,0,1.28801,-1562.35,-2224.37)">
                    <g id="Amandus-Komet" serif:id="Amandus Komet" transform="matrix(0.628261,0,0,0.628261,2405.82,2901.43)">
                        <g transform="matrix(38.7172,0,0,51.5341,-86655.3,-382220)">
                            <path d="M2353.93,7540.07C2368.79,7540.07 2380.85,7552.13 2380.85,7566.98C2380.85,7581.83 2368.79,7593.89 2353.93,7593.89C2339.08,7593.89 2327.02,7581.83 2327.02,7566.98C2327.02,7552.13 2339.08,7540.07 2353.93,7540.07ZM2353.93,7543.91C2341.2,7543.91 2330.87,7554.25 2330.87,7566.98C2330.87,7579.71 2341.2,7590.05 2353.93,7590.05C2366.66,7590.05 2377,7579.71 2377,7566.98C2377,7554.25 2366.66,7543.91 2353.93,7543.91ZM2358.05,7546.99C2361.48,7546.99 2364.27,7549.77 2364.27,7553.2C2364.27,7556.64 2361.48,7559.42 2358.05,7559.42C2354.62,7559.42 2351.83,7556.64 2351.83,7553.2C2351.83,7549.77 2354.62,7546.99 2358.05,7546.99ZM2358.05,7550.83C2356.74,7550.83 2355.68,7551.9 2355.68,7553.2C2355.68,7554.52 2356.74,7555.58 2358.05,7555.58C2359.36,7555.58 2360.42,7554.52 2360.42,7553.2C2360.42,7551.9 2359.36,7550.83 2358.05,7550.83ZM2342.06,7569.13C2345.49,7569.13 2348.28,7571.92 2348.28,7575.35C2348.28,7578.78 2345.49,7581.57 2342.06,7581.57C2338.63,7581.57 2335.84,7578.78 2335.84,7575.35C2335.84,7571.92 2338.63,7569.13 2342.06,7569.13ZM2342.06,7572.98C2340.75,7572.98 2339.68,7574.04 2339.68,7575.35C2339.68,7576.66 2340.75,7577.72 2342.06,7577.72C2343.37,7577.72 2344.43,7576.66 2344.43,7575.35C2344.43,7574.04 2343.37,7572.98 2342.06,7572.98ZM2342.06,7552.52C2345.49,7552.52 2348.28,7555.31 2348.28,7558.74C2348.28,7562.17 2345.49,7564.96 2342.06,7564.96C2338.63,7564.96 2335.84,7562.17 2335.84,7558.74C2335.84,7555.31 2338.63,7552.52 2342.06,7552.52ZM2342.06,7556.37C2340.75,7556.37 2339.68,7557.43 2339.68,7558.74C2339.68,7560.05 2340.75,7561.11 2342.06,7561.11C2343.37,7561.11 2344.43,7560.05 2344.43,7558.74C2344.43,7557.43 2343.37,7556.37 2342.06,7556.37ZM2354.78,7561.27C2355.8,7561.27 2356.62,7562.1 2356.62,7563.11C2356.62,7564.13 2355.8,7564.96 2354.78,7564.96C2353.76,7564.96 2352.93,7564.13 2352.93,7563.11C2352.93,7562.1 2353.76,7561.27 2354.78,7561.27ZM2357.37,7565.13C2358.39,7565.13 2359.22,7565.96 2359.22,7566.98C2359.22,7568 2358.39,7568.82 2357.37,7568.82C2356.35,7568.82 2355.52,7568 2355.52,7566.98C2355.52,7565.96 2356.35,7565.13 2357.37,7565.13ZM2354.78,7569C2355.8,7569 2356.62,7569.83 2356.62,7570.85C2356.62,7571.86 2355.8,7572.69 2354.78,7572.69C2353.76,7572.69 2352.93,7571.86 2352.93,7570.85C2352.93,7569.83 2353.76,7569 2354.78,7569ZM2350.6,7562.98C2351.62,7562.98 2352.45,7563.81 2352.45,7564.83C2352.45,7565.85 2351.62,7566.67 2350.6,7566.67C2349.59,7566.67 2348.76,7565.85 2348.76,7564.83C2348.76,7563.81 2349.59,7562.98 2350.6,7562.98ZM2368.51,7560.76C2371.94,7560.76 2374.72,7563.55 2374.72,7566.98C2374.72,7570.41 2371.94,7573.2 2368.51,7573.2C2365.08,7573.2 2362.29,7570.41 2362.29,7566.98C2362.29,7563.55 2365.08,7560.76 2368.51,7560.76ZM2368.51,7564.61C2367.2,7564.61 2366.14,7565.67 2366.14,7566.98C2366.14,7568.29 2367.2,7569.35 2368.51,7569.35C2369.82,7569.35 2370.88,7568.29 2370.88,7566.98C2370.88,7565.67 2369.82,7564.61 2368.51,7564.61ZM2350.3,7567.72C2351.14,7567.72 2351.83,7568.41 2351.83,7569.26C2351.83,7570.11 2351.14,7570.8 2350.3,7570.8C2349.45,7570.8 2348.76,7570.11 2348.76,7569.26C2348.76,7568.41 2349.45,7567.72 2350.3,7567.72ZM2358.05,7574.54C2361.48,7574.54 2364.27,7577.32 2364.27,7580.75C2364.27,7584.19 2361.48,7586.97 2358.05,7586.97C2354.62,7586.97 2351.83,7584.19 2351.83,7580.75C2351.83,7577.32 2354.62,7574.54 2358.05,7574.54ZM2358.05,7578.38C2356.74,7578.38 2355.68,7579.44 2355.68,7580.75C2355.68,7582.06 2356.74,7583.13 2358.05,7583.13C2359.36,7583.13 2360.42,7582.06 2360.42,7580.75C2360.42,7579.44 2359.36,7578.38 2358.05,7578.38Z" style="fill:rgb(255,235,28);"/>
                        </g>
                        <g transform="matrix(23.816,0,0,31.7,-52138,-231423)">
                            <path d="M2515,7559.88C2516.72,7559.88 2518.12,7561.28 2518.12,7563C2518.12,7564.73 2516.72,7566.12 2515,7566.12L2478.73,7566.12L2486,7582.51L2399,7582.51C2397.28,7582.51 2395.88,7581.11 2395.88,7579.38C2395.88,7577.66 2397.28,7576.26 2399,7576.26L2476.27,7576.26L2469,7559.88" style="fill:rgb(255,235,28);"/>
                        </g>
                        <g transform="matrix(23.816,-3.88213e-15,-2.91662e-15,-31.7,-51472.9,246883)">
                            <path d="M2370.2,7582.51C2368.47,7582.51 2367.07,7581.11 2367.07,7579.38C2367.07,7577.66 2368.47,7576.26 2370.2,7576.26L2476.27,7576.26L2465.07,7559.51L2472.2,7559.61L2483.87,7578.15L2486,7582.51L2370.2,7582.51Z" style="fill:rgb(255,235,28);"/>
                        </g>
                        <g transform="matrix(18.8395,0,0,31.7,-39766.5,-231423)">
                            <path d="M2419,7544.5L2486,7544.5" style="fill:none;stroke:rgb(255,235,28);stroke-width:6.85px;"/>
                        </g>
                        <g transform="matrix(21.3278,0,0,31.7,-46238,-231978)">
                            <path d="M2419,7544.5L2486,7544.5" style="fill:none;stroke:rgb(255,235,28);stroke-width:6.51px;"/>
                        </g>
                        <g transform="matrix(10.6639,0,0,31.7,-20442.1,-230877)">
                            <path d="M2419,7544.5L2486,7544.5" style="fill:none;stroke:rgb(255,235,28);stroke-width:7.98px;"/>
                        </g>
                        <g transform="matrix(20.4285,0,0,31.7,-42073.5,-231423)">
                            <path d="M2419,7544.5L2486,7544.5" style="fill:none;stroke:rgb(255,235,28);stroke-width:6.63px;"/>
                        </g>
                        <g transform="matrix(23.816,0,0,31.7,-52138,-231423)">
                            <path d="M2452.12,7600.85L2377.45,7600.85L2377.45,7600.85C2346.3,7600.82 2321,7575.52 2320.97,7544.37C2320.93,7513.19 2346.22,7487.88 2377.4,7487.88L2470.88,7487.88C2472.6,7487.88 2474,7489.28 2474,7491C2474,7492.73 2472.6,7494.12 2470.88,7494.12L2377.4,7494.12C2349.67,7494.12 2327.18,7516.64 2327.22,7544.36C2327.25,7572.07 2349.75,7594.57 2377.45,7594.6L2452.12,7594.6L2469.27,7594.6L2470.88,7594.6C2472.6,7594.6 2474,7596 2474,7597.73C2474,7599.45 2472.6,7600.85 2470.88,7600.85L2452.12,7600.85Z" style="fill:rgb(255,235,28);"/>
                        </g>
                    </g>
                    <g id="Amandus-Komet1" serif:id="Amandus Komet" transform="matrix(-0.628261,0,0,0.628261,19662,2901.43)">
                        <g transform="matrix(38.7172,0,0,51.5341,-86655.3,-382220)">
                            <path d="M2353.93,7540.07C2339.08,7540.07 2327.02,7552.13 2327.02,7566.98C2327.02,7581.83 2339.08,7593.89 2353.93,7593.89C2368.79,7593.89 2380.85,7581.83 2380.85,7566.98C2380.85,7552.13 2368.79,7540.07 2353.93,7540.07ZM2353.93,7543.91C2366.66,7543.91 2377,7554.25 2377,7566.98C2377,7579.71 2366.66,7590.05 2353.93,7590.05C2341.2,7590.05 2330.87,7579.71 2330.87,7566.98C2330.87,7554.25 2341.2,7543.91 2353.93,7543.91ZM2358.05,7546.99C2354.62,7546.99 2351.83,7549.77 2351.83,7553.2C2351.83,7556.64 2354.62,7559.42 2358.05,7559.42C2361.48,7559.42 2364.27,7556.64 2364.27,7553.2C2364.27,7549.77 2361.48,7546.99 2358.05,7546.99ZM2358.05,7550.83C2359.36,7550.83 2360.42,7551.9 2360.42,7553.2C2360.42,7554.52 2359.36,7555.58 2358.05,7555.58C2356.74,7555.58 2355.68,7554.52 2355.68,7553.2C2355.68,7551.9 2356.74,7550.83 2358.05,7550.83ZM2342.06,7569.13C2338.63,7569.13 2335.84,7571.92 2335.84,7575.35C2335.84,7578.78 2338.63,7581.57 2342.06,7581.57C2345.49,7581.57 2348.28,7578.78 2348.28,7575.35C2348.28,7571.92 2345.49,7569.13 2342.06,7569.13ZM2342.06,7572.98C2343.37,7572.98 2344.43,7574.04 2344.43,7575.35C2344.43,7576.66 2343.37,7577.72 2342.06,7577.72C2340.75,7577.72 2339.68,7576.66 2339.68,7575.35C2339.68,7574.04 2340.75,7572.98 2342.06,7572.98ZM2354.78,7561.27C2353.76,7561.27 2352.93,7562.1 2352.93,7563.11C2352.93,7564.13 2353.76,7564.96 2354.78,7564.96C2355.8,7564.96 2356.62,7564.13 2356.62,7563.11C2356.62,7562.1 2355.8,7561.27 2354.78,7561.27ZM2342.06,7552.52C2338.63,7552.52 2335.84,7555.31 2335.84,7558.74C2335.84,7562.17 2338.63,7564.96 2342.06,7564.96C2345.49,7564.96 2348.28,7562.17 2348.28,7558.74C2348.28,7555.31 2345.49,7552.52 2342.06,7552.52ZM2342.06,7556.37C2343.37,7556.37 2344.43,7557.43 2344.43,7558.74C2344.43,7560.05 2343.37,7561.11 2342.06,7561.11C2340.75,7561.11 2339.68,7560.05 2339.68,7558.74C2339.68,7557.43 2340.75,7556.37 2342.06,7556.37ZM2357.37,7565.13C2356.35,7565.13 2355.52,7565.96 2355.52,7566.98C2355.52,7568 2356.35,7568.82 2357.37,7568.82C2358.39,7568.82 2359.22,7568 2359.22,7566.98C2359.22,7565.96 2358.39,7565.13 2357.37,7565.13ZM2354.78,7569C2353.76,7569 2352.93,7569.83 2352.93,7570.85C2352.93,7571.86 2353.76,7572.69 2354.78,7572.69C2355.8,7572.69 2356.62,7571.86 2356.62,7570.85C2356.62,7569.83 2355.8,7569 2354.78,7569ZM2350.3,7567.72C2349.45,7567.72 2348.76,7568.41 2348.76,7569.26C2348.76,7570.11 2349.45,7570.8 2350.3,7570.8C2351.14,7570.8 2351.83,7570.11 2351.83,7569.26C2351.83,7568.41 2351.14,7567.72 2350.3,7567.72ZM2358.05,7574.54C2354.62,7574.54 2351.83,7577.32 2351.83,7580.75C2351.83,7584.19 2354.62,7586.97 2358.05,7586.97C2361.48,7586.97 2364.27,7584.19 2364.27,7580.75C2364.27,7577.32 2361.48,7574.54 2358.05,7574.54ZM2358.05,7578.38C2359.36,7578.38 2360.42,7579.44 2360.42,7580.75C2360.42,7582.06 2359.36,7583.13 2358.05,7583.13C2356.74,7583.13 2355.68,7582.06 2355.68,7580.75C2355.68,7579.44 2356.74,7578.38 2358.05,7578.38ZM2368.51,7560.76C2365.08,7560.76 2362.29,7563.55 2362.29,7566.98C2362.29,7570.41 2365.08,7573.2 2368.51,7573.2C2371.94,7573.2 2374.72,7570.41 2374.72,7566.98C2374.72,7563.55 2371.94,7560.76 2368.51,7560.76ZM2368.51,7564.61C2369.82,7564.61 2370.88,7565.67 2370.88,7566.98C2370.88,7568.29 2369.82,7569.35 2368.51,7569.35C2367.2,7569.35 2366.14,7568.29 2366.14,7566.98C2366.14,7565.67 2367.2,7564.61 2368.51,7564.61ZM2350.6,7562.98C2349.59,7562.98 2348.76,7563.81 2348.76,7564.83C2348.76,7565.85 2349.59,7566.67 2350.6,7566.67C2351.62,7566.67 2352.45,7565.85 2352.45,7564.83C2352.45,7563.81 2351.62,7562.98 2350.6,7562.98Z" style="fill:rgb(255,235,28);"/>
                        </g>
                        <g transform="matrix(23.816,0,0,31.7,-52138,-231423)">
                            <path d="M2515,7559.88C2516.72,7559.88 2518.12,7561.28 2518.12,7563C2518.12,7564.73 2516.72,7566.12 2515,7566.12L2478.73,7566.12L2486,7582.51L2399,7582.51C2397.28,7582.51 2395.88,7581.11 2395.88,7579.38C2395.88,7577.66 2397.28,7576.26 2399,7576.26L2476.27,7576.26L2469,7559.88" style="fill:rgb(255,235,28);"/>
                        </g>
                        <g transform="matrix(23.816,-3.88213e-15,-2.91662e-15,-31.7,-51472.9,246883)">
                            <path d="M2370.2,7582.51C2368.47,7582.51 2367.07,7581.11 2367.07,7579.38C2367.07,7577.66 2368.47,7576.26 2370.2,7576.26L2476.27,7576.26L2465.07,7559.51L2472.2,7559.61L2483.87,7578.15L2486,7582.51L2370.2,7582.51Z" style="fill:rgb(255,235,28);"/>
                        </g>
                        <g transform="matrix(18.8395,0,0,31.7,-39766.5,-231423)">
                            <path d="M2419,7544.5L2486,7544.5" style="fill:none;stroke:rgb(255,235,28);stroke-width:6.85px;"/>
                        </g>
                        <g transform="matrix(21.3278,0,0,31.7,-46238,-231978)">
                            <path d="M2419,7544.5L2486,7544.5" style="fill:none;stroke:rgb(255,235,28);stroke-width:6.51px;"/>
                        </g>
                        <g transform="matrix(10.6639,0,0,31.7,-20442.1,-230877)">
                            <path d="M2419,7544.5L2486,7544.5" style="fill:none;stroke:rgb(255,235,28);stroke-width:7.98px;"/>
                        </g>
                        <g transform="matrix(20.4285,0,0,31.7,-42073.5,-231423)">
                            <path d="M2419,7544.5L2486,7544.5" style="fill:none;stroke:rgb(255,235,28);stroke-width:6.63px;"/>
                        </g>
                        <g transform="matrix(23.816,0,0,31.7,-52138,-231423)">
                            <path d="M2452.12,7600.85L2377.45,7600.85L2377.45,7600.85C2346.3,7600.82 2321,7575.52 2320.97,7544.37C2320.93,7513.19 2346.22,7487.88 2377.4,7487.88L2470.88,7487.88C2472.6,7487.88 2474,7489.28 2474,7491C2474,7492.73 2472.6,7494.12 2470.88,7494.12L2377.4,7494.12C2349.67,7494.12 2327.18,7516.64 2327.22,7544.36C2327.25,7572.07 2349.75,7594.57 2377.45,7594.6L2452.12,7594.6L2469.27,7594.6L2470.88,7594.6C2472.6,7594.6 2474,7596 2474,7597.73C2474,7599.45 2472.6,7600.85 2470.88,7600.85L2452.12,7600.85Z" style="fill:rgb(255,235,28);"/>
                        </g>
                    </g>
                    <g id="Text" transform="matrix(1,0,0,1,2726.93,0)">
                        <g transform="matrix(23.4951,0,0,31.2729,-52505.6,-228715)">
                            <g transform="matrix(38.9232,0,0,41.6667,2479.02,7545.2)">
                                <path d="M0.514,-0.118L0.262,-0.118L0.227,-0L0.001,-0L0.27,-0.716L0.511,-0.716L0.78,-0L0.549,-0L0.514,-0.118ZM0.467,-0.273L0.388,-0.53L0.31,-0.273L0.467,-0.273Z" style="fill:rgb(255,235,28);fill-rule:nonzero;"/>
                            </g>
                            <g transform="matrix(38.9232,0,0,41.6667,2509.3,7545.2)">
                                <path d="M0.071,-0.716L0.362,-0.716L0.474,-0.28L0.586,-0.716L0.876,-0.716L0.876,-0L0.695,-0L0.695,-0.546L0.555,-0L0.392,-0L0.252,-0.546L0.252,-0L0.071,-0L0.071,-0.716Z" style="fill:rgb(255,235,28);fill-rule:nonzero;"/>
                            </g>
                            <g transform="matrix(38.9232,0,0,41.6667,2546.04,7545.2)">
                                <path d="M0.514,-0.118L0.262,-0.118L0.227,-0L0.001,-0L0.27,-0.716L0.511,-0.716L0.78,-0L0.549,-0L0.514,-0.118ZM0.467,-0.273L0.388,-0.53L0.31,-0.273L0.467,-0.273Z" style="fill:rgb(255,235,28);fill-rule:nonzero;"/>
                            </g>
                            <g transform="matrix(38.9232,0,0,41.6667,2576.31,7545.2)">
                                <path d="M0.075,-0.716L0.281,-0.716L0.551,-0.32L0.551,-0.716L0.759,-0.716L0.759,-0L0.551,-0L0.283,-0.393L0.283,-0L0.075,-0L0.075,-0.716Z" style="fill:rgb(255,235,28);fill-rule:nonzero;"/>
                            </g>
                            <g transform="matrix(38.9232,0,0,41.6667,2608.74,7545.2)">
                                <path d="M0.076,-0.716L0.405,-0.716C0.47,-0.716 0.522,-0.707 0.562,-0.689C0.602,-0.672 0.635,-0.647 0.661,-0.614C0.687,-0.581 0.706,-0.543 0.717,-0.499C0.729,-0.455 0.735,-0.409 0.735,-0.36C0.735,-0.284 0.726,-0.225 0.709,-0.182C0.691,-0.14 0.667,-0.105 0.636,-0.076C0.605,-0.048 0.572,-0.029 0.537,-0.02C0.488,-0.007 0.444,-0 0.405,-0L0.076,-0L0.076,-0.716ZM0.297,-0.554L0.297,-0.163L0.352,-0.163C0.398,-0.163 0.431,-0.168 0.45,-0.178C0.47,-0.188 0.485,-0.206 0.496,-0.232C0.507,-0.257 0.513,-0.299 0.513,-0.356C0.513,-0.432 0.5,-0.484 0.476,-0.512C0.451,-0.54 0.41,-0.554 0.353,-0.554L0.297,-0.554Z" style="fill:rgb(255,235,28);fill-rule:nonzero;"/>
                            </g>
                            <g transform="matrix(38.9232,0,0,41.6667,2639.01,7545.2)">
                                <path d="M0.539,-0.716L0.76,-0.716L0.76,-0.289C0.76,-0.247 0.753,-0.207 0.74,-0.17C0.727,-0.132 0.706,-0.099 0.678,-0.071C0.65,-0.043 0.62,-0.023 0.589,-0.012C0.546,0.004 0.495,0.012 0.435,0.012C0.4,0.012 0.362,0.01 0.321,0.005C0.279,0 0.245,-0.01 0.217,-0.024C0.19,-0.039 0.164,-0.059 0.141,-0.086C0.118,-0.113 0.103,-0.14 0.094,-0.168C0.081,-0.214 0.074,-0.254 0.074,-0.289L0.074,-0.716L0.294,-0.716L0.294,-0.279C0.294,-0.24 0.305,-0.21 0.327,-0.188C0.349,-0.166 0.379,-0.155 0.417,-0.155C0.455,-0.155 0.485,-0.166 0.507,-0.187C0.528,-0.209 0.539,-0.24 0.539,-0.279L0.539,-0.716Z" style="fill:rgb(255,235,28);fill-rule:nonzero;"/>
                            </g>
                            <g transform="matrix(38.9232,0,0,41.6667,2671.44,7545.2)">
                                <path d="M0.035,-0.237L0.245,-0.25C0.25,-0.216 0.259,-0.19 0.273,-0.172C0.296,-0.143 0.328,-0.128 0.371,-0.128C0.402,-0.128 0.427,-0.136 0.444,-0.151C0.461,-0.165 0.469,-0.183 0.469,-0.202C0.469,-0.221 0.461,-0.237 0.445,-0.252C0.429,-0.267 0.391,-0.28 0.332,-0.293C0.235,-0.315 0.165,-0.344 0.124,-0.38C0.082,-0.417 0.062,-0.463 0.062,-0.519C0.062,-0.555 0.072,-0.59 0.094,-0.623C0.115,-0.656 0.147,-0.681 0.19,-0.7C0.233,-0.719 0.291,-0.728 0.366,-0.728C0.457,-0.728 0.527,-0.711 0.575,-0.677C0.623,-0.643 0.652,-0.589 0.661,-0.515L0.452,-0.502C0.447,-0.535 0.435,-0.558 0.417,-0.573C0.399,-0.587 0.375,-0.595 0.344,-0.595C0.318,-0.595 0.299,-0.589 0.286,-0.578C0.273,-0.567 0.266,-0.554 0.266,-0.539C0.266,-0.527 0.271,-0.517 0.282,-0.508C0.293,-0.498 0.317,-0.49 0.356,-0.481C0.453,-0.461 0.522,-0.44 0.564,-0.418C0.606,-0.397 0.636,-0.37 0.656,-0.339C0.675,-0.307 0.684,-0.272 0.684,-0.233C0.684,-0.187 0.671,-0.145 0.646,-0.106C0.621,-0.067 0.585,-0.038 0.54,-0.018C0.494,0.002 0.437,0.012 0.367,0.012C0.245,0.012 0.161,-0.011 0.114,-0.058C0.067,-0.105 0.041,-0.165 0.035,-0.237Z" style="fill:rgb(255,235,28);fill-rule:nonzero;"/>
                            </g>
                        </g>
                        <g transform="matrix(26.1457,0,0,34.8009,-57804.6,-254816)">
                            <g transform="matrix(23.4357,0,0,25.0876,2474,7554)">
                                <path d="M0.082,-0L0.082,-0.716L0.565,-0.716L0.565,-0.631L0.177,-0.631L0.177,-0.41L0.513,-0.41L0.513,-0.325L0.177,-0.325L0.177,-0L0.082,-0Z" style="fill:rgb(255,235,28);fill-rule:nonzero;"/>
                            </g>
                            <g transform="matrix(23.4357,0,0,25.0876,2488.32,7554)">
                                <rect x="0.093" y="-0.716" width="0.095" height="0.716" style="fill:rgb(255,235,28);fill-rule:nonzero;"/>
                            </g>
                            <g transform="matrix(23.4357,0,0,25.0876,2494.83,7554)">
                                <path d="M0.073,-0L0.073,-0.716L0.168,-0.716L0.168,-0.361L0.523,-0.716L0.652,-0.716L0.352,-0.426L0.665,-0L0.54,-0L0.285,-0.362L0.168,-0.248L0.168,-0L0.073,-0Z" style="fill:rgb(255,235,28);fill-rule:nonzero;"/>
                            </g>
                            <g transform="matrix(23.4357,0,0,25.0876,2510.46,7554)">
                                <path d="M0.045,-0.23L0.134,-0.238C0.139,-0.202 0.148,-0.173 0.164,-0.15C0.179,-0.127 0.203,-0.108 0.236,-0.094C0.268,-0.08 0.305,-0.073 0.346,-0.073C0.382,-0.073 0.414,-0.078 0.441,-0.089C0.469,-0.1 0.49,-0.114 0.503,-0.133C0.517,-0.152 0.523,-0.172 0.523,-0.194C0.523,-0.217 0.517,-0.236 0.504,-0.253C0.491,-0.27 0.469,-0.284 0.439,-0.295C0.42,-0.303 0.378,-0.315 0.312,-0.33C0.246,-0.346 0.2,-0.361 0.174,-0.375C0.14,-0.393 0.114,-0.415 0.097,-0.442C0.081,-0.468 0.072,-0.498 0.072,-0.531C0.072,-0.567 0.083,-0.601 0.103,-0.632C0.124,-0.663 0.153,-0.687 0.193,-0.704C0.232,-0.72 0.276,-0.728 0.324,-0.728C0.377,-0.728 0.424,-0.719 0.465,-0.702C0.505,-0.685 0.536,-0.66 0.558,-0.627C0.58,-0.594 0.592,-0.556 0.593,-0.514L0.502,-0.507C0.498,-0.553 0.481,-0.587 0.453,-0.61C0.425,-0.633 0.383,-0.645 0.328,-0.645C0.271,-0.645 0.229,-0.634 0.203,-0.613C0.177,-0.592 0.164,-0.567 0.164,-0.537C0.164,-0.511 0.173,-0.49 0.191,-0.474C0.21,-0.457 0.257,-0.44 0.334,-0.423C0.411,-0.405 0.464,-0.39 0.493,-0.377C0.534,-0.358 0.565,-0.333 0.585,-0.304C0.605,-0.274 0.615,-0.241 0.615,-0.202C0.615,-0.164 0.604,-0.128 0.582,-0.094C0.56,-0.061 0.529,-0.035 0.488,-0.016C0.447,0.003 0.401,0.012 0.35,0.012C0.285,0.012 0.231,0.003 0.187,-0.016C0.143,-0.035 0.109,-0.063 0.084,-0.101C0.059,-0.139 0.046,-0.182 0.045,-0.23Z" style="fill:rgb(255,235,28);fill-rule:nonzero;"/>
                            </g>
                            <g transform="matrix(23.4357,0,0,25.0876,2526.09,7554)">
                                <path d="M0.029,-0.203L0.114,-0.215C0.117,-0.16 0.127,-0.123 0.145,-0.103C0.163,-0.082 0.188,-0.072 0.221,-0.072C0.244,-0.072 0.265,-0.078 0.282,-0.089C0.299,-0.1 0.311,-0.114 0.318,-0.133C0.324,-0.152 0.328,-0.182 0.328,-0.223L0.328,-0.716L0.422,-0.716L0.422,-0.228C0.422,-0.168 0.415,-0.122 0.401,-0.089C0.386,-0.056 0.363,-0.031 0.332,-0.014C0.3,0.004 0.264,0.012 0.221,0.012C0.158,0.012 0.11,-0.006 0.077,-0.042C0.044,-0.078 0.028,-0.132 0.029,-0.203Z" style="fill:rgb(255,235,28);fill-rule:nonzero;"/>
                            </g>
                            <g transform="matrix(23.4357,0,0,25.0876,2537.81,7554)">
                                <path d="M0.048,-0.349C0.048,-0.467 0.08,-0.56 0.144,-0.628C0.208,-0.695 0.29,-0.729 0.391,-0.729C0.457,-0.729 0.517,-0.713 0.57,-0.681C0.623,-0.65 0.663,-0.606 0.691,-0.549C0.719,-0.493 0.733,-0.429 0.733,-0.357C0.733,-0.284 0.718,-0.219 0.689,-0.162C0.66,-0.105 0.618,-0.061 0.564,-0.032C0.511,-0.003 0.453,0.012 0.391,0.012C0.323,0.012 0.263,-0.004 0.21,-0.037C0.157,-0.069 0.117,-0.114 0.089,-0.17C0.062,-0.226 0.048,-0.286 0.048,-0.349ZM0.146,-0.347C0.146,-0.261 0.169,-0.193 0.216,-0.143C0.262,-0.094 0.32,-0.069 0.39,-0.069C0.461,-0.069 0.52,-0.094 0.566,-0.144C0.612,-0.194 0.635,-0.265 0.635,-0.357C0.635,-0.416 0.625,-0.467 0.606,-0.51C0.586,-0.553 0.557,-0.587 0.519,-0.611C0.481,-0.635 0.439,-0.647 0.392,-0.647C0.325,-0.647 0.267,-0.624 0.219,-0.578C0.17,-0.532 0.146,-0.455 0.146,-0.347Z" style="fill:rgb(255,235,28);fill-rule:nonzero;"/>
                            </g>
                            <g transform="matrix(23.4357,0,0,25.0876,2556.04,7554)">
                                <path d="M0.076,-0L0.076,-0.716L0.173,-0.716L0.549,-0.154L0.549,-0.716L0.64,-0.716L0.64,-0L0.543,-0L0.167,-0.563L0.167,-0L0.076,-0Z" style="fill:rgb(255,235,28);fill-rule:nonzero;"/>
                            </g>
                        </g>
                        <g transform="matrix(19.7219,0,0,26.2506,-42069.4,-190341)">
                            <circle cx="2457.52" cy="7546.52" r="9.521" style="fill:rgb(255,235,28);"/>
                        </g>
                        <g transform="matrix(19.7219,0,0,26.2506,-38250.6,-190362)">
                            <circle cx="2457.52" cy="7546.52" r="9.521" style="fill:rgb(255,235,28);"/>
                        </g>
                        <g transform="matrix(22.4665,0,0,29.9038,-50043,-216438)">
                            <g transform="matrix(38.9232,0,0,41.6667,2478.1,7545.2)">
                                <path d="M0.075,-0.716L0.281,-0.716L0.551,-0.32L0.551,-0.716L0.759,-0.716L0.759,-0L0.551,-0L0.283,-0.393L0.283,-0L0.075,-0L0.075,-0.716Z" style="fill:rgb(255,235,28);fill-rule:nonzero;"/>
                            </g>
                            <g transform="matrix(38.9232,0,0,41.6667,2510.52,7545.2)">
                                <path d="M0.045,-0.357C0.045,-0.474 0.078,-0.565 0.143,-0.63C0.208,-0.695 0.299,-0.728 0.415,-0.728C0.534,-0.728 0.626,-0.696 0.69,-0.632C0.755,-0.568 0.787,-0.479 0.787,-0.363C0.787,-0.28 0.773,-0.211 0.745,-0.157C0.717,-0.104 0.676,-0.062 0.623,-0.032C0.57,-0.003 0.503,0.012 0.424,0.012C0.343,0.012 0.276,-0.001 0.223,-0.026C0.17,-0.052 0.128,-0.093 0.095,-0.148C0.062,-0.204 0.045,-0.274 0.045,-0.357ZM0.267,-0.356C0.267,-0.284 0.28,-0.232 0.307,-0.201C0.334,-0.169 0.37,-0.153 0.417,-0.153C0.464,-0.153 0.501,-0.169 0.527,-0.2C0.553,-0.231 0.566,-0.286 0.566,-0.366C0.566,-0.434 0.552,-0.483 0.525,-0.514C0.498,-0.545 0.461,-0.561 0.415,-0.561C0.37,-0.561 0.334,-0.545 0.307,-0.513C0.28,-0.482 0.267,-0.429 0.267,-0.356Z" style="fill:rgb(255,235,28);fill-rule:nonzero;"/>
                            </g>
                            <g transform="matrix(38.9232,0,0,41.6667,2542.94,7545.2)">
                                <path d="M0.071,-0.716L0.362,-0.716L0.474,-0.28L0.586,-0.716L0.876,-0.716L0.876,-0L0.695,-0L0.695,-0.546L0.555,-0L0.392,-0L0.252,-0.546L0.252,-0L0.071,-0L0.071,-0.716Z" style="fill:rgb(255,235,28);fill-rule:nonzero;"/>
                            </g>
                            <g transform="matrix(38.9232,0,0,41.6667,2579.68,7545.2)">
                                <rect x="0.082" y="-0.716" width="0.222" height="0.716" style="fill:rgb(255,235,28);fill-rule:nonzero;"/>
                            </g>
                            <g transform="matrix(38.9232,0,0,41.6667,2594.83,7545.2)">
                                <path d="M0.075,-0.716L0.281,-0.716L0.551,-0.32L0.551,-0.716L0.759,-0.716L0.759,-0L0.551,-0L0.283,-0.393L0.283,-0L0.075,-0L0.075,-0.716Z" style="fill:rgb(255,235,28);fill-rule:nonzero;"/>
                            </g>
                            <g transform="matrix(38.9232,0,0,41.6667,2627.25,7545.2)">
                                <path d="M0.073,-0.716L0.666,-0.716L0.666,-0.563L0.294,-0.563L0.294,-0.449L0.639,-0.449L0.639,-0.303L0.294,-0.303L0.294,-0.162L0.676,-0.162L0.676,-0L0.073,-0L0.073,-0.716Z" style="fill:rgb(255,235,28);fill-rule:nonzero;"/>
                            </g>
                            <g transform="matrix(38.9232,0,0,41.6667,2655.36,7545.2)">
                                <path d="M0.076,-0L0.076,-0.716L0.445,-0.716C0.513,-0.716 0.565,-0.71 0.602,-0.698C0.638,-0.687 0.667,-0.665 0.689,-0.633C0.711,-0.601 0.722,-0.563 0.722,-0.517C0.722,-0.477 0.714,-0.443 0.697,-0.414C0.68,-0.385 0.657,-0.362 0.627,-0.344C0.608,-0.333 0.582,-0.323 0.549,-0.316C0.576,-0.307 0.595,-0.298 0.607,-0.29C0.615,-0.284 0.627,-0.271 0.642,-0.252C0.658,-0.233 0.668,-0.218 0.673,-0.207L0.78,-0L0.53,-0L0.412,-0.219C0.397,-0.247 0.384,-0.265 0.372,-0.274C0.356,-0.285 0.338,-0.291 0.318,-0.291L0.298,-0.291L0.298,-0L0.076,-0ZM0.298,-0.426L0.392,-0.426C0.402,-0.426 0.421,-0.429 0.45,-0.436C0.465,-0.438 0.477,-0.446 0.486,-0.458C0.495,-0.47 0.5,-0.484 0.5,-0.5C0.5,-0.523 0.493,-0.54 0.478,-0.553C0.463,-0.565 0.436,-0.571 0.396,-0.571L0.298,-0.571L0.298,-0.426Z" style="fill:rgb(255,235,28);fill-rule:nonzero;"/>
                            </g>
                            <g transform="matrix(38.9232,0,0,41.6667,2685.27,7545.2)">
                                <path d="M0.023,-0.716L0.695,-0.716L0.695,-0.539L0.47,-0.539L0.47,-0L0.249,-0L0.249,-0.539L0.023,-0.539L0.023,-0.716Z" style="fill:rgb(255,235,28);fill-rule:nonzero;"/>
                            </g>
                        </g>
                    </g>
                </g>
            </g>
        </g>
    </g>
</svg>
