<?xml version="1.0" encoding="UTF-8" standalone="no"?><!DOCTYPE svg PUBLIC "-//W3C//DTD SVG 1.1//EN" "http://www.w3.org/Graphics/SVG/1.1/DTD/svg11.dtd"><svg width="100%" height="100%" viewBox="0 0 1500 1505" version="1.1" xmlns="http://www.w3.org/2000/svg" xmlns:xlink="http://www.w3.org/1999/xlink" xml:space="preserve" xmlns:serif="http://www.serif.com/" style="fill-rule:evenodd;clip-rule:evenodd;stroke-linejoin:round;stroke-miterlimit:2;"><rect id="Muted" x="0" y="1.052" width="1500" height="1500" style="fill:none;"/><path d="M1163.74,1023.37c63.62,-90.782 96.307,-181.43 96.613,-272.421c0.441,-130.966 -66.283,-261.21 -198.45,-392.176c-12.921,-12.803 -12.696,-33.374 0.502,-45.908c13.198,-12.534 34.403,-12.315 47.324,0.488c147.033,145.697 218.044,292.11 217.553,437.808c-0.358,106.356 -38.86,213.089 -116.103,319.648l-47.439,-47.439Zm-114.016,-114.016c34.355,-54.659 52.12,-107.144 52.32,-159.983c0.353,-93.238 -54.099,-185.345 -160.019,-290.302c-12.921,-12.803 -12.696,-33.374 0.502,-45.908c13.198,-12.534 34.403,-12.315 47.324,0.488c121.698,120.591 179.528,228.834 179.122,335.96c-0.257,67.751 -23.85,135.94 -71.568,207.427l-47.681,-47.682Zm-71.245,-71.245l-54.225,-54.224c1.995,-10.963 3.02,-21.939 3.057,-32.936c0.215,-64.103 -33.22,-127.482 -97.911,-191.585c-12.92,-12.803 -12.695,-33.373 0.503,-45.907c13.198,-12.534 34.403,-12.316 47.323,0.487c79.558,78.834 117.279,158.383 117.013,237.217c-0.097,28.911 -5.314,57.917 -15.76,86.948Zm-428.242,-428.242l192.833,-106.261l0,299.095l-66.666,-66.667l-0,-119.573l-77.092,42.481l-49.075,-49.075Zm-133.28,149.562l-61.389,33.828l-116.18,0l0,315.595l111.951,-0l325.065,177.339l-0,-267.314l66.666,66.666l0,312.96l-408.734,-222.985l-161.615,0l0,-448.927l165.695,-0l29.465,-16.237l49.076,49.075Z" style="fill:#fff;"/><path d="M227.083,289.904c-17.046,-17.046 -17.046,-44.724 -0,-61.77c17.046,-17.045 44.724,-17.045 61.77,0l980.256,980.257c17.046,17.046 17.046,44.724 0,61.77c-17.045,17.046 -44.724,17.046 -61.769,-0l-980.257,-980.257Z" style="fill:#fff;"/></svg>