<?xml version="1.0" encoding="UTF-8" standalone="no"?><!DOCTYPE svg PUBLIC "-//W3C//DTD SVG 1.1//EN" "http://www.w3.org/Graphics/SVG/1.1/DTD/svg11.dtd"><svg width="100%" height="100%" viewBox="0 0 1505 1505" version="1.1" xmlns="http://www.w3.org/2000/svg" xmlns:xlink="http://www.w3.org/1999/xlink" xml:space="preserve" xmlns:serif="http://www.serif.com/" style="fill-rule:evenodd;clip-rule:evenodd;stroke-linejoin:round;stroke-miterlimit:2;"><rect id="Unmuted" x="2.205" y="1.052" width="1500" height="1500" style="fill:none;"/><path d="M745.273,1198.5l-408.734,-222.985l-161.615,0l-0,-448.927l165.694,-0l404.655,-222.985m-503.683,289.651l0,315.595l111.951,-0l325.065,177.339l0,-669.73l-320.835,176.796l-116.181,0Z" style="fill:#fff;"/><g><path d="M831.603,559.361c-12.921,-12.803 -12.696,-33.373 0.502,-45.907c13.198,-12.534 34.403,-12.316 47.324,0.487c79.557,78.834 117.278,158.383 117.013,237.217c-0.265,78.714 -38.48,158.133 -116.857,236.847c-12.831,12.887 -34.034,13.244 -47.319,0.796c-13.284,-12.447 -13.652,-33.016 -0.82,-45.903c63.946,-64.222 97.851,-127.73 98.067,-191.952c0.216,-64.103 -33.219,-127.482 -97.91,-191.585Z" style="fill:#fff;"/><path d="M944.227,459.066c-12.921,-12.803 -12.695,-33.374 0.503,-45.908c13.198,-12.534 34.402,-12.315 47.323,0.488c121.698,120.591 179.528,228.834 179.122,335.96c-0.406,107.008 -59.025,215.108 -178.965,335.566c-12.832,12.887 -34.035,13.244 -47.319,0.796c-13.285,-12.448 -13.652,-33.016 -0.821,-45.903c104.64,-105.092 159.822,-197.341 160.176,-290.697c0.353,-93.238 -54.099,-185.345 -160.019,-290.302Z" style="fill:#fff;"/><path d="M1064.11,358.77c-12.921,-12.803 -12.695,-33.374 0.503,-45.908c13.197,-12.534 34.402,-12.315 47.323,0.488c147.033,145.697 218.044,292.11 217.553,437.808c-0.49,145.577 -72.444,291.861 -217.396,437.439c-12.832,12.887 -34.035,13.243 -47.319,0.796c-13.285,-12.448 -13.652,-33.017 -0.821,-45.904c130.522,-131.085 198.166,-261.459 198.607,-392.543c0.441,-130.966 -66.283,-261.21 -198.45,-392.176Z" style="fill:#fff;"/></g></svg>