<?xml version="1.0" encoding="UTF-8" standalone="no"?>
<!DOCTYPE svg PUBLIC "-//W3C//DTD SVG 1.1//EN" "http://www.w3.org/Graphics/SVG/1.1/DTD/svg11.dtd">
<svg width="100%" height="100%" viewBox="0 0 361 361" version="1.1" xmlns="http://www.w3.org/2000/svg" xmlns:xlink="http://www.w3.org/1999/xlink" xml:space="preserve" xmlns:serif="http://www.serif.com/" style="fill-rule:evenodd;clip-rule:evenodd;stroke-linejoin:round;stroke-miterlimit:2;">
    <g transform="matrix(1,0,0,1,-2898.62,-900.915)">
        <g id="Favicon" transform="matrix(0.333333,0,0,0.333333,2898.62,900.915)">
            <rect x="0" y="0" width="1080" height="1080" style="fill:none;"/>
            <clipPath id="_clip1">
                <rect x="0" y="0" width="1080" height="1080"/>
            </clipPath>
            <g clip-path="url(#_clip1)">
                <g id="aktuelt_icon.svg" transform="matrix(9.33452,0,0,9.33452,539.909,541.166)">
                    <g transform="matrix(1,0,0,1,-57.84,-57.84)">
                        <g id="Layer_2-2">
                            <g id="B_W">
                                <g>
                                    <g>
                                        <path d="M18.59,100.26C19.98,100.97 21.42,101.61 22.9,102.19L22.25,103.37C22.18,103.32 22.12,103.27 22.05,103.21C21.56,102.82 21.08,102.43 20.6,102.03L20.58,102.03C20.09,101.62 19.61,101.2 19.14,100.78C18.95,100.61 18.77,100.44 18.59,100.27L18.59,100.26Z" style="fill:white;fill-rule:nonzero;"/>
                                        <path d="M27.73,103.79C31.95,104.96 36.48,105.65 41.29,105.83L39.43,112.63C38.73,112.4 38.04,112.15 37.36,111.88C36.93,111.73 36.5,111.56 36.08,111.37C36.03,111.37 35.99,111.35 35.96,111.33C35.51,111.15 35.07,110.96 34.64,110.76C34.34,110.64 34.05,110.51 33.77,110.37C33.35,110.18 32.94,109.99 32.53,109.79C31.74,109.41 30.97,109.01 30.21,108.58C29.79,108.36 29.38,108.13 28.97,107.89C28.08,107.39 27.21,106.85 26.36,106.29C26.27,106.24 26.18,106.18 26.1,106.12C26.19,106.18 26.27,106.23 26.36,106.28L27.73,103.79Z" style="fill:white;fill-rule:nonzero;"/>
                                        <path d="M65.73,115.14C63.15,115.5 60.51,115.68 57.83,115.68C57.24,115.68 56.64,115.67 56.05,115.65C55.86,115.65 55.67,115.64 55.48,115.62C54.89,115.61 54.3,115.57 53.71,115.53C53.11,115.49 52.5,115.43 51.9,115.37L51.39,115.31C50.81,115.25 50.22,115.17 49.64,115.09C49.03,115 48.43,114.9 47.82,114.79C47.09,114.66 46.36,114.52 45.64,114.36C45.41,114.31 45.17,114.26 44.93,114.2C44.69,114.15 44.45,114.1 44.22,114.04C44.04,113.99 43.85,113.94 43.67,113.89C43.86,113.94 44.04,113.99 44.23,114.02L46.46,105.85L46.47,105.85C52.07,105.67 57.16,104.78 61.79,103.34L65.73,115.14Z" style="fill:white;fill-rule:nonzero;"/>
                                        <path d="M64.32,59.03L64.32,59.09C64.32,66.64 69.83,72.93 77.03,74.16C77.04,74 77.04,73.83 77.04,73.67C77.04,66.21 71.5,60.03 64.32,59.03ZM25.11,59.03L25.11,59.09C25.11,66.64 30.62,72.93 37.83,74.16C37.84,74 37.84,73.83 37.84,73.67C37.84,66.21 32.29,60.03 25.11,59.03ZM58.56,31.99C18.02,33.25 4.91,56.62 0.91,68.13C0.93,68.26 0.96,68.4 0.98,68.53C1.32,70.34 1.74,72.12 2.26,73.89C2.25,73.82 2.25,73.74 2.25,73.67C2.25,62.2 11.58,52.88 23.04,52.88C32.08,52.88 39.79,58.67 42.65,66.74C45.51,58.67 53.22,52.88 62.25,52.88C73.71,52.88 83.04,62.2 83.04,73.67C83.04,85.14 73.71,94.46 62.25,94.46C53.22,94.46 45.51,88.67 42.65,80.6C39.79,88.67 32.08,94.46 23.04,94.46C20.97,94.46 18.97,94.16 17.08,93.58C20.17,95.59 23.52,97.18 27.13,98.37C27.23,98.39 27.33,98.42 27.43,98.46C33.07,100.27 39.34,101.07 46.21,100.86C52.19,100.68 57.53,99.63 62.32,97.92C62.46,97.87 62.6,97.82 62.75,97.77C62.76,97.76 62.77,97.75 62.78,97.76C68.58,95.63 73.56,92.54 77.89,88.87C78.12,88.68 78.34,88.49 78.57,88.29C78.57,88.29 78.57,88.28 78.58,88.28C82.19,85.12 85.33,81.56 88.11,77.84C88.11,77.83 88.12,77.82 88.12,77.82C88.25,77.66 88.37,77.5 88.49,77.34C90.81,74.19 98.75,60.34 100.4,57.04C100.41,57.03 100.41,57.01 100.42,57C100.43,56.97 100.45,56.94 100.47,56.92C100.84,56.18 101.2,55.45 101.56,54.74C102.59,52.68 103.53,50.79 104.43,49.09C91.07,39.96 72.6,31.56 58.56,31.99ZM64.32,59.03L64.32,59.09C64.32,66.64 69.83,72.93 77.03,74.16C77.04,74 77.04,73.83 77.04,73.67C77.04,66.21 71.5,60.03 64.32,59.03ZM64.32,59.03L64.32,59.09C64.32,66.64 69.83,72.93 77.03,74.16C77.04,74 77.04,73.83 77.04,73.67C77.04,66.21 71.5,60.03 64.32,59.03ZM64.32,59.03L64.32,59.09C64.32,66.64 69.83,72.93 77.03,74.16C77.04,74 77.04,73.83 77.04,73.67C77.04,66.21 71.5,60.03 64.32,59.03Z" style="fill:white;fill-rule:nonzero;"/>
                                        <path d="M112.7,39.48C110.35,40.09 108.41,42.25 106.37,45.63C92.38,36.17 73.16,27.54 58.44,27.99C22.36,29.12 6.68,46.98 0.05,60.02C0.01,59.29 0,58.56 0,57.83C0,25.94 25.94,0 57.83,0C82.88,0 104.89,16.04 112.7,39.48Z" style="fill:white;fill-rule:nonzero;"/>
                                        <path d="M79.41,94.01L88.81,106.66C83.33,110.16 77.22,112.75 70.7,114.24L66.49,101.64C71.31,99.64 75.59,97.03 79.41,94.01Z" style="fill:white;fill-rule:nonzero;"/>
                                        <path d="M103.57,93.22C100.49,97.19 96.91,100.74 92.92,103.79L83.2,90.76C85.95,88.21 88.43,85.46 90.67,82.61L103.57,93.22Z" style="fill:white;fill-rule:nonzero;"/>
                                        <path d="M97.87,72.18L111.41,79.64C110.05,82.97 108.39,86.14 106.46,89.12L93.67,78.61C95.18,76.48 96.57,74.32 97.87,72.18Z" style="fill:white;fill-rule:nonzero;"/>
                                        <path d="M103.82,61.35L115.02,66.59C114.59,69.42 113.95,72.19 113.11,74.87L100.38,67.85C101.62,65.61 102.76,63.43 103.82,61.35Z" style="fill:white;fill-rule:nonzero;"/>
                                        <path d="M115.43,52.49C113.91,51.18 112.25,49.86 110.46,48.53C111.83,46.19 113.07,44.52 113.98,44.31C114.01,44.3 114.04,44.3 114.08,44.31L114.09,44.31C114.14,44.51 114.18,44.71 114.22,44.91C114.27,45.09 114.31,45.28 114.35,45.47C114.42,45.79 114.49,46.11 114.55,46.43C114.61,46.73 114.67,47.04 114.72,47.35C114.77,47.58 114.82,47.82 114.85,48.07C114.92,48.43 114.98,48.81 115.03,49.18C115.06,49.33 115.08,49.48 115.09,49.63C115.15,50.01 115.2,50.39 115.25,50.78C115.28,51.05 115.32,51.32 115.34,51.6C115.38,51.9 115.41,52.19 115.43,52.49Z" style="fill:white;fill-rule:nonzero;"/>
                                        <path d="M115.68,58.14C115.67,59.21 115.64,60.28 115.57,61.33L106.07,56.89C106.87,55.28 107.7,53.61 108.52,52.04C111.25,54.11 113.68,56.17 115.68,58.14Z" style="fill:white;fill-rule:nonzero;"/>
                                        <path d="M44.23,114.02C44.04,113.99 43.86,113.94 43.67,113.89C43.85,113.94 44.04,113.99 44.22,114.04C44.45,114.1 44.69,114.15 44.93,114.2C44.7,114.14 44.47,114.08 44.23,114.02ZM26.1,106.12C26.18,106.18 26.27,106.24 26.36,106.29C26.27,106.23 26.19,106.18 26.1,106.12ZM114.09,44.31L114.08,44.31C114.13,44.51 114.18,44.71 114.22,44.91C114.18,44.71 114.14,44.51 114.09,44.31Z" style="fill:rgb(35,31,32);fill-rule:nonzero;"/>
                                    </g>
                                    <g>
                                        <path d="M18.59,100.26C19.98,100.97 21.42,101.61 22.9,102.19L22.25,103.37C22.18,103.32 22.12,103.27 22.05,103.21C21.56,102.82 21.08,102.43 20.6,102.03L20.58,102.03C20.09,101.62 19.61,101.2 19.14,100.78C18.95,100.61 18.77,100.44 18.59,100.27L18.59,100.26Z" style="fill:white;fill-rule:nonzero;"/>
                                        <path d="M27.73,103.79C31.95,104.96 36.48,105.65 41.29,105.83L39.43,112.63C38.73,112.4 38.04,112.15 37.36,111.88C36.93,111.73 36.5,111.56 36.08,111.37C36.03,111.37 35.99,111.35 35.96,111.33C35.51,111.15 35.07,110.96 34.64,110.76C34.34,110.64 34.05,110.51 33.77,110.37C33.35,110.18 32.94,109.99 32.53,109.79C31.74,109.41 30.97,109.01 30.21,108.58C29.79,108.36 29.38,108.13 28.97,107.89C28.08,107.39 27.21,106.85 26.36,106.29C26.27,106.24 26.18,106.18 26.1,106.12C26.19,106.18 26.27,106.23 26.36,106.28L27.73,103.79Z" style="fill:white;fill-rule:nonzero;"/>
                                        <path d="M65.73,115.14C63.15,115.5 60.51,115.68 57.83,115.68C57.24,115.68 56.64,115.67 56.05,115.65C55.86,115.65 55.67,115.64 55.48,115.62C54.89,115.61 54.3,115.57 53.71,115.53C53.11,115.49 52.5,115.43 51.9,115.37L51.39,115.31C50.81,115.25 50.22,115.17 49.64,115.09C49.03,115 48.43,114.9 47.82,114.79C47.09,114.66 46.36,114.52 45.64,114.36C45.41,114.31 45.17,114.26 44.93,114.2C44.69,114.15 44.45,114.1 44.22,114.04C44.04,113.99 43.85,113.94 43.67,113.89C43.86,113.94 44.04,113.99 44.23,114.02L46.46,105.85L46.47,105.85C52.07,105.67 57.16,104.78 61.79,103.34L65.73,115.14Z" style="fill:white;fill-rule:nonzero;"/>
                                        <path d="M79.41,94.01L88.81,106.66C83.33,110.16 77.22,112.75 70.7,114.24L66.49,101.64C71.31,99.64 75.59,97.03 79.41,94.01Z" style="fill:white;fill-rule:nonzero;"/>
                                        <path d="M103.57,93.22C100.49,97.19 96.91,100.74 92.92,103.79L83.2,90.76C85.95,88.21 88.43,85.46 90.67,82.61L103.57,93.22Z" style="fill:white;fill-rule:nonzero;"/>
                                        <path d="M97.87,72.18L111.41,79.64C110.05,82.97 108.39,86.14 106.46,89.12L93.67,78.61C95.18,76.48 96.57,74.32 97.87,72.18Z" style="fill:white;fill-rule:nonzero;"/>
                                        <path d="M103.82,61.35L115.02,66.59C114.59,69.42 113.95,72.19 113.11,74.87L100.38,67.85C101.62,65.61 102.76,63.43 103.82,61.35Z" style="fill:white;fill-rule:nonzero;"/>
                                        <path d="M115.43,52.49C113.91,51.18 112.25,49.86 110.46,48.53C111.83,46.19 113.07,44.52 113.98,44.31C114.01,44.3 114.04,44.3 114.08,44.31L114.09,44.31C114.14,44.51 114.18,44.71 114.22,44.91C114.27,45.09 114.31,45.28 114.35,45.47C114.42,45.79 114.49,46.11 114.55,46.43C114.61,46.73 114.67,47.04 114.72,47.35C114.77,47.58 114.82,47.82 114.85,48.07C114.92,48.43 114.98,48.81 115.03,49.18C115.06,49.33 115.08,49.48 115.09,49.63C115.15,50.01 115.2,50.39 115.25,50.78C115.28,51.05 115.32,51.32 115.34,51.6C115.38,51.9 115.41,52.19 115.43,52.49Z" style="fill:white;fill-rule:nonzero;"/>
                                        <path d="M115.68,58.14C115.67,59.21 115.64,60.28 115.57,61.33L106.07,56.89C106.87,55.28 107.7,53.61 108.52,52.04C111.25,54.11 113.68,56.17 115.68,58.14Z" style="fill:white;fill-rule:nonzero;"/>
                                    </g>
                                </g>
                            </g>
                        </g>
                    </g>
                </g>
            </g>
        </g>
    </g>
</svg>
